HIERARCHY
ROOT Hips
{
	OFFSET -0.001795 -0.223333 0.028219
	CHANNELS 6 Xposition Yposition Zposition Zrotation Yrotation Xrotation 
	JOINT LeftUpLeg
	{
		OFFSET 0.069520 -0.091406 -0.006815
		CHANNELS 3 Zrotation Yrotation Xrotation
		JOINT LeftLeg
		{
			OFFSET 0.034277 -0.375199 -0.004496
			CHANNELS 3 Zrotation Yrotation Xrotation
			JOINT LeftFoot
			{
				OFFSET -0.013596 -0.397961 -0.043693
				CHANNELS 3 Zrotation Yrotation Xrotation
				JOINT LeftToe
				{
					OFFSET 0.026358 -0.055791 0.119288
					CHANNELS 3 Zrotation Yrotation Xrotation
					End Site
					{
						OFFSET 0.000000 0.000000 0.000000
					}
				}
			}
		}
	}
	JOINT RightUpLeg
	{
		OFFSET -0.067670 -0.090522 -0.004320
		CHANNELS 3 Zrotation Yrotation Xrotation
		JOINT RightLeg
		{
			OFFSET -0.038290 -0.382569 -0.008850
			CHANNELS 3 Zrotation Yrotation Xrotation
			JOINT RightFoot
			{
				OFFSET 0.015774 -0.398415 -0.042312
				CHANNELS 3 Zrotation Yrotation Xrotation
				JOINT RightToe
				{
					OFFSET -0.025372 -0.048144 0.123348
					CHANNELS 3 Zrotation Yrotation Xrotation
					End Site
					{
						OFFSET 0.000000 0.000000 0.000000
					}
				}
			}
		}
	}
	JOINT Spine
	{
		OFFSET -0.002533 0.108963 -0.026696
		CHANNELS 3 Zrotation Yrotation Xrotation
		JOINT Spine1
		{
			OFFSET 0.005487 0.135180 0.001092
			CHANNELS 3 Zrotation Yrotation Xrotation
			JOINT Spine2
			{
				OFFSET 0.001457 0.052922 0.025425
				CHANNELS 3 Zrotation Yrotation Xrotation
				JOINT Neck
				{
					OFFSET -0.002778 0.213870 -0.042857
					CHANNELS 3 Zrotation Yrotation Xrotation
					JOINT Head
					{
						OFFSET 0.005152 0.064970 0.051349
						CHANNELS 3 Zrotation Yrotation Xrotation
						End Site
						{
							OFFSET 0.000000 0.000000 0.000000
						}
					}
				}
				JOINT LeftShoulder
				{
					OFFSET 0.078845 0.121749 -0.034090
					CHANNELS 3 Zrotation Yrotation Xrotation
					JOINT LeftArm
					{
						OFFSET 0.090977 0.030469 -0.008868
						CHANNELS 3 Zrotation Yrotation Xrotation
						JOINT LeftForeArm
						{
							OFFSET 0.259612 -0.012772 -0.027456
							CHANNELS 3 Zrotation Yrotation Xrotation
							JOINT LeftHand
							{
								OFFSET 0.249234 0.008986 -0.001171
								CHANNELS 3 Zrotation Yrotation Xrotation
								End Site
								{
									OFFSET 0.000000 0.000000 0.000000
								}
							}
						}
					}
				}
				JOINT RightShoulder
				{
					OFFSET -0.081759 0.118833 -0.038615
					CHANNELS 3 Zrotation Yrotation Xrotation
					JOINT RightArm
					{
						OFFSET -0.096012 0.032551 -0.009143
						CHANNELS 3 Zrotation Yrotation Xrotation
						JOINT RightForeArm
						{
							OFFSET -0.253742 -0.013329 -0.021401
							CHANNELS 3 Zrotation Yrotation Xrotation
							JOINT RightHand
							{
								OFFSET -0.255298 0.007772 -0.005559
								CHANNELS 3 Zrotation Yrotation Xrotation
								End Site
								{
									OFFSET 0.000000 0.000000 0.000000
								}
							}
						}
					}
				}
			}
		}
	}
}
MOTION
Frames: 18
Frame Time: 0.050000
0.000000 0.951505 0.000000 0.893143 -1.092753 3.831481 5.755140 -0.247003 -3.340337 -4.000864 0.439385 -3.521271 1.833901 7.703086 12.905605 0.000000 0.000000 0.000000 -8.093772 0.404969 -4.091677 4.013111 -0.393013 3.394794 -5.493409 -15.146048 10.373500 0.000000 0.000000 0.000000 -0.839012 -0.079462 2.948626 5.420906 -1.745736 -10.278605 2.252717 -0.376005 23.067435 0.478672 0.206410 -10.611955 0.000000 0.000000 0.000000 -16.753814 -1.305724 -0.077446 -48.458540 -13.835261 -2.202862 -50.304312 -65.247680 38.655356 0.000000 0.000000 0.000000 9.089548 9.041101 3.350694 49.643990 18.955610 0.914766 32.989155 78.682702 32.052850 0.000000 0.000000 0.000000 
0.000391 0.951083 -0.002150 0.852334 -0.156239 4.706099 5.942778 -0.277726 -3.503802 -4.033454 0.430033 -4.620352 1.102056 6.610713 12.812322 0.000000 0.000000 0.000000 -7.988593 0.424811 -4.700669 4.295131 -0.441597 2.954120 -6.386522 -16.804653 11.201218 0.000000 0.000000 0.000000 -0.003660 -0.076366 1.881540 6.067946 -2.086091 -8.794662 2.498865 -0.700877 23.287568 1.107424 -0.487882 -7.662805 0.000000 0.000000 0.000000 -18.766401 -1.644138 -0.035509 -46.528650 -15.288730 -1.700758 -46.363308 -63.981764 34.743820 0.000000 0.000000 0.000000 7.818891 11.354227 4.338286 48.782320 22.699288 2.361928 12.840376 77.982957 15.186799 0.000000 0.000000 0.000000 
0.000961 0.950956 -0.005269 1.542253 0.276767 4.956357 5.607727 -0.326536 -4.406402 -4.443677 0.461749 -2.853011 0.278350 5.122566 12.112861 0.000000 0.000000 0.000000 -8.924310 0.434998 -5.685857 4.663116 -0.497187 3.839136 -6.847944 -17.640955 11.654768 0.000000 0.000000 0.000000 0.146114 -0.128685 2.993406 7.026026 -2.555313 -7.619782 2.155617 0.925584 22.981210 2.500049 -1.375561 -7.896850 0.000000 0.000000 0.000000 -18.845258 -3.667985 0.567894 -45.520615 -17.970047 -0.581260 -39.301201 -61.306203 27.651599 0.000000 0.000000 0.000000 9.912548 14.355414 6.052004 44.607218 28.436289 4.150750 -12.221515 69.855197 -3.955089 0.000000 0.000000 0.000000 
0.001626 0.950845 -0.008539 1.752841 0.301626 5.733897 5.713396 -0.378150 -5.406858 -4.725249 0.484722 -2.623675 0.173738 4.928316 12.045188 0.000000 0.000000 0.000000 -9.449706 0.467877 -7.061588 4.838685 -0.521947 4.059383 -6.849811 -17.670492 12.274110 0.000000 0.000000 0.000000 0.667889 -0.151928 2.868025 7.353044 -2.788672 -6.477448 2.693000 1.458001 22.962043 2.618472 -1.428312 -7.792834 0.000000 0.000000 0.000000 -20.154922 -4.992149 1.096438 -44.801757 -19.619800 0.022209 -36.448276 -58.614821 24.297970 0.000000 0.000000 0.000000 9.160913 16.995700 7.211774 41.669189 33.064781 5.356945 -17.183637 62.126793 -6.415788 0.000000 0.000000 0.000000 
0.002174 0.950887 -0.011556 2.298647 0.534777 5.693657 4.932435 -0.409341 -5.686017 -4.910270 0.499174 -2.482112 0.351413 5.225013 11.963399 0.000000 0.000000 0.000000 -9.772948 0.453224 -7.287069 4.524993 -0.481259 4.159480 -6.780138 -17.533918 12.461989 0.000000 0.000000 0.000000 1.460522 -0.290978 4.693262 6.894881 -2.532086 -7.167132 3.414276 2.049634 23.601327 2.820000 -1.382322 -9.026311 0.000000 0.000000 0.000000 -19.814384 -6.748498 1.921438 -46.100255 -21.058926 0.604932 -33.077884 -56.203112 21.080498 0.000000 0.000000 0.000000 9.371148 19.332454 8.376128 38.516214 38.270220 6.433893 -17.474166 51.730008 -5.384571 0.000000 0.000000 0.000000 
0.002243 0.951288 -0.014022 2.468243 0.815790 6.036150 4.592631 -0.445840 -6.118616 -4.972265 0.499570 -2.554841 0.595600 5.658281 11.963841 0.000000 0.000000 0.000000 -10.146638 0.448787 -7.904087 4.696242 -0.509802 4.170999 -6.822739 -17.600010 12.807094 0.000000 0.000000 0.000000 1.957044 -0.375149 5.498093 6.637522 -2.417019 -7.216817 3.970836 3.018824 23.889376 2.968033 -1.318132 -9.474710 0.000000 0.000000 0.000000 -20.148118 -8.104330 2.364207 -46.440766 -22.453270 1.198105 -31.009488 -54.092047 18.823760 0.000000 0.000000 0.000000 8.992797 21.233647 9.322838 36.114596 41.276959 6.808502 -18.607708 42.578880 -4.740934 0.000000 0.000000 0.000000 
0.001656 0.951913 -0.016100 2.695938 1.721602 6.443041 4.363385 -0.499334 -6.789512 -4.932873 0.485593 -2.469814 0.456631 5.581288 12.105895 0.000000 0.000000 0.000000 -10.189964 0.433537 -8.415772 4.738318 -0.528633 4.117464 -7.051404 -17.925508 13.025797 0.000000 0.000000 0.000000 2.482263 -0.471638 6.288293 6.547138 -2.308884 -7.803287 4.208160 2.816207 24.545426 3.544429 -1.560494 -10.990875 0.000000 0.000000 0.000000 -20.437345 -9.317544 2.965792 -47.321281 -22.683417 1.307869 -28.685638 -53.080905 17.175026 0.000000 0.000000 0.000000 8.303539 22.881867 9.947012 34.693917 43.538841 7.114723 -18.757769 35.240416 -3.953634 0.000000 0.000000 0.000000 
0.000433 0.952314 -0.017815 2.489539 1.990417 6.613608 4.831427 -0.508616 -7.139407 -4.948078 0.484234 -2.383281 0.654174 5.994145 12.306103 0.000000 0.000000 0.000000 -9.850931 0.451177 -9.024013 4.841815 -0.549766 4.458847 -6.963472 -17.743746 12.962430 0.000000 0.000000 0.000000 3.029248 -0.576781 7.060342 6.546067 -2.298738 -7.841970 4.335614 3.569434 24.582284 4.312125 -1.948173 -11.636463 0.000000 0.000000 0.000000 -21.080488 -10.626447 3.427566 -47.222431 -23.092100 1.520963 -26.635740 -52.346007 15.678586 0.000000 0.000000 0.000000 8.626979 23.819856 10.563625 32.594561 45.089231 6.953661 -17.957591 28.497943 -2.974312 0.000000 0.000000 0.000000 
-0.001040 0.952699 -0.019209 2.391798 2.367101 6.762160 5.095757 -0.523558 -7.485990 -4.933189 0.479829 -2.209248 0.382796 5.606857 12.337361 0.000000 0.000000 0.000000 -9.718448 0.452048 -9.165843 5.160761 -0.603955 4.477653 -7.018521 -17.812195 13.233044 0.000000 0.000000 0.000000 3.383589 -0.651294 7.562434 6.289719 -2.173566 -8.026825 4.628822 3.682957 24.958615 4.631991 -1.964753 -12.975233 0.000000 0.000000 0.000000 -21.294830 -11.344465 3.746797 -47.681524 -23.368501 1.657604 -24.050372 -51.361228 14.013243 0.000000 0.000000 0.000000 8.326280 24.574271 10.862433 31.480470 45.812271 6.813086 -17.576608 23.561815 -2.356320 0.000000 0.000000 0.000000 
-0.002316 0.953198 -0.020194 2.319274 2.492896 6.910676 5.231118 -0.531930 -7.680818 -4.781218 0.466068 -2.168853 0.385005 5.636070 12.372713 0.000000 0.000000 0.000000 -9.478809 0.466218 -9.316779 5.217015 -0.612814 4.335224 -7.061415 -17.880823 13.488681 0.000000 0.000000 0.000000 3.997307 -0.762074 8.136241 5.931362 -2.001975 -8.354797 4.664264 4.091455 25.507724 4.549181 -1.686252 -14.039352 0.000000 0.000000 0.000000 -21.665955 -12.358504 4.185868 -47.475842 -23.410512 1.650777 -21.722668 -51.218799 12.743936 0.000000 0.000000 0.000000 8.235544 25.198039 11.178512 30.183254 46.069867 6.451859 -17.693017 19.689630 -1.944532 0.000000 0.000000 0.000000 
-0.003096 0.953139 -0.020782 2.482751 2.689344 7.065323 5.276310 -0.546688 -7.924857 -4.609464 0.451306 -1.913958 0.247470 5.483571 12.520714 0.000000 0.000000 0.000000 -9.743451 0.451449 -9.417387 5.411046 -0.644147 4.250077 -7.116179 -17.957584 13.582924 0.000000 0.000000 0.000000 4.174114 -0.826240 8.650394 5.538919 -1.877967 -7.976445 4.848489 4.346261 25.191993 4.575194 -1.599699 -14.400239 0.000000 0.000000 0.000000 -21.936381 -12.694789 4.257569 -47.526838 -23.428368 1.729306 -19.898892 -50.945728 11.709174 0.000000 0.000000 0.000000 8.146239 25.614366 11.391028 29.391913 46.207037 6.267910 -17.499931 16.537210 -1.554158 0.000000 0.000000 0.000000 
-0.003518 0.953242 -0.020998 2.581059 2.793508 7.121937 5.247270 -0.550597 -7.946083 -4.505538 0.441277 -1.962980 0.261269 5.574228 12.693684 0.000000 0.000000 0.000000 -9.856629 0.443668 -9.467272 5.237700 -0.620672 4.338392 -7.013595 -17.766280 13.734904 0.000000 0.000000 0.000000 4.439298 -0.883843 8.971054 5.339334 -1.777901 -8.214483 5.007412 4.683114 25.695657 4.590737 -1.516792 -14.702248 0.000000 0.000000 0.000000 -22.723454 -13.053206 4.344546 -46.988706 -23.466816 1.698544 -18.640347 -50.895331 11.037605 0.000000 0.000000 0.000000 8.207895 26.098165 11.669649 27.806356 45.746407 5.600542 -17.337692 14.700405 -1.334386 0.000000 0.000000 0.000000 
-0.003746 0.953256 -0.020983 2.662044 2.832177 7.212040 5.219921 -0.552070 -7.921904 -4.381127 0.430358 -2.007150 0.344233 5.738795 12.777050 0.000000 0.000000 0.000000 -9.944477 0.440360 -9.507268 5.161475 -0.608140 4.188929 -6.985069 -17.714010 13.883414 0.000000 0.000000 0.000000 4.683524 -0.926615 9.118634 5.162235 -1.751991 -7.677013 4.935962 5.144644 25.414134 4.685516 -1.545105 -14.474101 0.000000 0.000000 0.000000 -22.836963 -13.179320 4.255964 -46.604961 -23.284388 1.661163 -17.963761 -50.850354 10.607331 0.000000 0.000000 0.000000 8.221552 26.371474 11.860821 27.074377 45.323681 5.300589 -17.381062 13.480254 -1.195673 0.000000 0.000000 0.000000 
-0.004055 0.953272 -0.020828 2.691438 2.453264 7.214241 5.291733 -0.534835 -7.692896 -4.473985 0.440579 -2.303143 0.658701 6.262625 12.997670 0.000000 0.000000 0.000000 -10.023444 0.448011 -9.513082 5.191388 -0.607914 4.319502 -6.832370 -17.480459 13.603945 0.000000 0.000000 0.000000 4.877832 -0.980974 9.513070 4.985864 -1.680129 -7.778690 5.055439 5.748312 25.712556 4.736631 -1.457880 -14.896438 0.000000 0.000000 0.000000 -23.080204 -13.391452 4.255655 -46.245943 -23.412794 1.692676 -17.456788 -50.602235 10.249940 0.000000 0.000000 0.000000 8.163594 26.446179 11.924677 26.189218 45.126380 4.974849 -17.286588 12.776030 -1.108379 0.000000 0.000000 0.000000 
-0.004423 0.953305 -0.020458 2.781980 2.435218 7.296105 5.329143 -0.531540 -7.625292 -4.605739 0.449375 -2.573471 0.743919 6.465246 13.234084 0.000000 0.000000 0.000000 -10.110871 0.446246 -9.577717 5.120750 -0.596851 4.305910 -6.904403 -17.610800 13.687355 0.000000 0.000000 0.000000 4.882257 -0.976089 9.439919 4.921899 -1.669209 -7.593035 5.013108 5.859011 25.559879 4.663500 -1.424675 -14.652564 0.000000 0.000000 0.000000 -23.187706 -13.212780 4.112489 -45.714482 -23.181415 1.586255 -17.717965 -50.663647 10.356135 0.000000 0.000000 0.000000 8.164078 26.493140 11.960313 25.834307 44.747102 4.783516 -17.207030 12.898520 -1.118286 0.000000 0.000000 0.000000 
-0.004892 0.953118 -0.019886 2.871352 2.277282 7.445163 5.291778 -0.533832 -7.641738 -4.662527 0.453964 -2.759104 1.052958 6.980416 13.392268 0.000000 0.000000 0.000000 -10.177496 0.453227 -9.860522 5.127999 -0.598386 4.639762 -6.969416 -17.736202 13.426169 0.000000 0.000000 0.000000 4.772336 -0.944157 9.211007 4.839302 -1.660690 -7.307924 4.996619 5.948822 25.428028 4.526315 -1.404697 -14.079452 0.000000 0.000000 0.000000 -23.077781 -13.027420 4.001825 -45.381536 -23.050021 1.520018 -17.962338 -50.930263 10.518716 0.000000 0.000000 0.000000 8.241359 26.470467 11.978062 25.246239 44.301647 4.493627 -17.412816 13.492225 -1.208348 0.000000 0.000000 0.000000 
-0.005381 0.952792 -0.019106 2.908983 2.162545 7.478766 5.324288 -0.526263 -7.517328 -4.919711 0.472202 -3.044989 1.275790 7.331194 13.444789 0.000000 0.000000 0.000000 -10.225032 0.454981 -9.886253 5.351362 -0.632591 4.834072 -7.308889 -18.345919 13.321075 0.000000 0.000000 0.000000 4.703085 -0.915593 8.982425 4.861730 -1.662675 -7.411560 4.916138 5.973950 25.603028 4.662024 -1.560897 -13.743157 0.000000 0.000000 0.000000 -22.986072 -12.840667 3.912180 -44.816998 -23.244992 1.521357 -18.410406 -51.774072 10.935810 0.000000 0.000000 0.000000 8.539291 26.246851 11.962927 24.431501 43.771499 4.087864 -17.357668 14.463897 -1.323471 0.000000 0.000000 0.000000 
-0.005863 0.952531 -0.018334 2.930507 2.005759 7.352963 5.428530 -0.509714 -7.290220 -4.983718 0.478670 -3.090716 1.568597 7.789859 13.513480 0.000000 0.000000 0.000000 -10.229543 0.456322 -9.776225 5.403363 -0.641717 5.175408 -7.498923 -18.694625 13.143751 0.000000 0.000000 0.000000 4.526067 -0.879116 8.833791 4.965289 -1.715993 -7.288654 4.803253 5.921790 25.692275 4.743915 -1.687184 -13.451522 0.000000 0.000000 0.000000 -22.695456 -12.447649 3.742385 -44.347191 -23.539439 1.553416 -19.308486 -52.968517 11.693175 0.000000 0.000000 0.000000 8.664261 26.138968 11.924834 23.503929 43.262984 3.677903 -17.252378 15.617469 -1.456483 0.000000 0.000000 0.000000 
